<svg xmlns="http://www.w3.org/2000/svg" viewBox="0 0 1000 500" width="1000" height="500">
  <rect width="1000" height="500" fill="#0a1628"/>
  <g fill="rgba(34,211,238,0.15)" stroke="#22d3ee" stroke-width="1.2" stroke-linejoin="round">
    <!-- North America -->
    <path d="M80,100 L95,85 L115,75 L140,70 L165,65 L190,70 L210,80 L225,90 L235,105 L240,120 L250,130 L255,145 L248,160 L240,175 L230,190 L225,200 L215,215 L200,225 L185,235 L175,240 L160,245 L150,235 L140,225 L130,230 L120,240 L110,235 L100,220 L90,200 L85,180 L78,155 L75,130 L78,115 Z"/>
    <!-- Greenland -->
    <path d="M225,45 L250,35 L275,30 L295,35 L305,48 L300,60 L285,68 L265,72 L245,68 L230,58 Z"/>
    <!-- South America -->
    <path d="M195,275 L210,260 L225,265 L240,275 L250,290 L258,310 L262,335 L258,360 L250,385 L240,405 L228,420 L215,430 L205,425 L195,410 L188,390 L185,365 L188,340 L192,315 L190,295 Z"/>
    <!-- Europe -->
    <path d="M430,80 L445,72 L465,68 L485,72 L500,80 L510,90 L515,105 L510,118 L500,125 L488,130 L475,132 L462,128 L450,120 L440,110 L432,95 Z"/>
    <!-- British Isles -->
    <path d="M415,78 L422,72 L428,75 L430,82 L425,88 L418,85 Z"/>
    <!-- Africa -->
    <path d="M450,170 L468,160 L488,155 L508,160 L525,172 L535,190 L542,215 L545,245 L542,275 L535,305 L525,330 L512,350 L498,365 L482,372 L468,368 L455,355 L445,335 L438,310 L435,280 L435,250 L438,220 L442,195 Z"/>
    <!-- Madagascar -->
    <path d="M555,310 L562,300 L568,308 L565,325 L558,332 L552,322 Z"/>
    <!-- Asia -->
    <path d="M520,65 L545,58 L575,52 L610,48 L645,45 L680,48 L715,55 L745,65 L768,78 L785,92 L795,108 L800,125 L795,140 L785,152 L770,160 L750,165 L730,168 L710,165 L690,158 L670,152 L650,148 L628,142 L608,135 L590,125 L575,115 L558,105 L542,92 L528,78 Z"/>
    <!-- India -->
    <path d="M640,170 L658,165 L672,175 L678,195 L675,218 L665,238 L650,248 L638,240 L630,222 L628,200 L632,182 Z"/>
    <!-- Southeast Asia -->
    <path d="M720,175 L738,168 L752,178 L758,195 L752,210 L738,218 L725,212 L718,195 Z"/>
    <!-- Japan -->
    <path d="M810,85 L818,78 L825,82 L828,95 L822,108 L815,112 L808,105 L806,92 Z"/>
    <!-- Indonesia -->
    <path d="M738,248 L755,242 L772,245 L785,252 L775,260 L758,262 L742,258 Z"/>
    <path d="M790,255 L805,250 L815,258 L808,268 L795,265 Z"/>
    <!-- Australia -->
    <path d="M782,325 L805,312 L830,308 L855,312 L875,325 L885,345 L880,368 L868,385 L848,395 L825,398 L805,392 L790,378 L782,358 L780,340 Z"/>
    <!-- New Zealand -->
    <path d="M905,385 L912,378 L918,385 L915,398 L908,405 L902,395 Z"/>
    <!-- Antarctica hint -->
    <path d="M50,485 L150,478 L280,475 L420,478 L550,475 L680,478 L800,475 L900,480 L950,485" fill="none" opacity="0.3"/>
    <!-- Repeating Americas at right edge for seamless tiling -->
    <path d="M1080,100 L1095,85 L1115,75 L1140,70 L1165,65 L1190,70 L1210,80 L1225,90 L1235,105 L1240,120 L1250,130 L1255,145 L1248,160 L1240,175 L1230,190 L1225,200 L1215,215 L1200,225 L1185,235 L1175,240 L1160,245 L1150,235 L1140,225 L1130,230 L1120,240 L1110,235 L1100,220 L1090,200 L1085,180 L1078,155 L1075,130 L1078,115 Z" opacity="0.5"/>
  </g>
  <!-- Grid lines for tech feel -->
  <g stroke="#22d3ee" stroke-width="0.3" opacity="0.15" fill="none">
    <line x1="0" y1="125" x2="1000" y2="125"/>
    <line x1="0" y1="250" x2="1000" y2="250"/>
    <line x1="0" y1="375" x2="1000" y2="375"/>
    <line x1="200" y1="0" x2="200" y2="500"/>
    <line x1="400" y1="0" x2="400" y2="500"/>
    <line x1="600" y1="0" x2="600" y2="500"/>
    <line x1="800" y1="0" x2="800" y2="500"/>
    <ellipse cx="500" cy="250" rx="160" ry="250" stroke-width="0.4"/>
    <ellipse cx="500" cy="250" rx="350" ry="250" stroke-width="0.4"/>
  </g>
</svg>
